PathFileType	4	(X/Y/Z)	Kaydara	
DataRate	CameraRate	NumFrames	NumMarkers	Units	OrigDataRate	OrigDataStartFrame	OrigNumFrames	
240.00	240.00	4	72	mm	240.00	178	355	
Frame#	Time	Hips			RightUpLeg			RightLeg			RightFoot			RightFoot_End			LeftUpLeg			LeftLeg			LeftFoot			LeftFoot_End			Spine			Spine1			Spine2			Spine3			Neck			Head			Head_End			RightShoulder			RightArm			RightForeArm			RightHand			RightHandThumb1			RightHandThumb2			RightHandThumb3			RightHandThumb3_End			RightInHandIndex			RightHandIndex1			RightHandIndex2			RightHandIndex3			RightHandIndex3_End			RightInHandMiddle			RightHandMiddle1			RightHandMiddle2			RightHandMiddle3			RightHandMiddle3_End			RightInHandRing			RightHandRing1			RightHandRing2			RightHandRing3			RightHandRing3_End			RightInHandPinky			RightHandPinky1			RightHandPinky2			RightHandPinky3			RightHandPinky3_End			LeftShoulder			LeftArm			LeftForeArm			LeftHand			LeftHandThumb1			LeftHandThumb2			LeftHandThumb3			LeftHandThumb3_End			LeftInHandIndex			LeftHandIndex1			LeftHandIndex2			LeftHandIndex3			LeftHandIndex3_End			LeftInHandMiddle			LeftHandMiddle1			LeftHandMiddle2			LeftHandMiddle3			LeftHandMiddle3_End			LeftInHandRing			LeftHandRing1			LeftHandRing2			LeftHandRing3			LeftHandRing3_End			LeftInHandPinky			LeftHandPinky1			LeftHandPinky2			LeftHandPinky3			LeftHandPinky3_End			
		X1	Y1	Z1	X2	Y2	Z2	X3	Y3	Z3	X4	Y4	Z4	X5	Y5	Z5	X6	Y6	Z6	X7	Y7	Z7	X8	Y8	Z8	X9	Y9	Z9	X10	Y10	Z10	X11	Y11	Z11	X12	Y12	Z12	X13	Y13	Z13	X14	Y14	Z14	X15	Y15	Z15	X16	Y16	Z16	X17	Y17	Z17	X18	Y18	Z18	X19	Y19	Z19	X20	Y20	Z20	X21	Y21	Z21	X22	Y22	Z22	X23	Y23	Z23	X24	Y24	Z24	X25	Y25	Z25	X26	Y26	Z26	X27	Y27	Z27	X28	Y28	Z28	X29	Y29	Z29	X30	Y30	Z30	X31	Y31	Z31	X32	Y32	Z32	X33	Y33	Z33	X34	Y34	Z34	X35	Y35	Z35	X36	Y36	Z36	X37	Y37	Z37	X38	Y38	Z38	X39	Y39	Z39	X40	Y40	Z40	X41	Y41	Z41	X42	Y42	Z42	X43	Y43	Z43	X44	Y44	Z44	X45	Y45	Z45	X46	Y46	Z46	X47	Y47	Z47	X48	Y48	Z48	X49	Y49	Z49	X50	Y50	Z50	X51	Y51	Z51	X52	Y52	Z52	X53	Y53	Z53	X54	Y54	Z54	X55	Y55	Z55	X56	Y56	Z56	X57	Y57	Z57	X58	Y58	Z58	X59	Y59	Z59	X60	Y60	Z60	X61	Y61	Z61	X62	Y62	Z62	X63	Y63	Z63	X64	Y64	Z64	X65	Y65	Z65	X66	Y66	Z66	X67	Y67	Z67	X68	Y68	Z68	X69	Y69	Z69	X70	Y70	Z70	X71	Y71	Z71	X72	Y72	Z72	

178	0.738	7921.0129	906.651	56.2195	7970.937537170086	879.8719631316269	-6.291293105483348	7894.110709701609	475.2877778214026	-78.66754217572182	7927.529294214981	102.87300509227009	-172.08280445015447	7853.3568126205955	25.185059594130976	-14.00564761084911	7878.81483527952	904.6927467358306	130.41905012403927	7820.423051339546	502.36124073657487	230.67982424070095	7760.434732034403	71.46827510923973	294.3751221968189	7633.235781688413	-9.446224726312092	177.3313863654686	7884.739001240973	1035.3152194013098	5.672532994008894	7836.497841347802	1105.1143227479843	-41.070760812523034	7781.04083561069	1172.3583102836378	-91.48601641473549	7720.543146404469	1227.4130781371257	-142.55116573321052	7655.314685291515	1286.1689466168268	-196.43591136545749	7594.846591064433	1339.6017900936079	-244.49551933552215	7473.447219114675	1431.8328089126478	-290.08042128939786	7691.386390638724	1262.5323308987208	-199.62873043609596	7727.91595280395	1243.178970319556	-293.25449925759244	7732.692507614451	1015.9768812022282	-255.1967895566749	7748.1933510956505	864.8918274226568	-312.4060029776298	7754.934447610002	866.8400143690621	-326.82519350248833	7747.854212828051	862.1678103247941	-337.69915821376594	7742.646522273793	856.3605062123618	-344.1342241660734	7738.068116810533	849.334686673608	-348.52570187205805	7756.000445671282	857.6619041841151	-324.28855431561965	7760.665094932626	838.0199431104695	-337.2838642440837	7756.21653194562	825.435148510708	-345.1613352744805	7749.090917113964	821.8105053852951	-349.33700420800193	7740.25213179089	821.6429584955238	-352.3063588779834	7754.718913030378	851.451758233897	-320.68682747761744	7758.577686636109	828.9341996687924	-331.4142186987608	7753.529581494896	814.4473356532706	-339.49125875493974	7744.839760235618	809.7123592296891	-344.28006594989097	7735.123300036404	809.3530655068872	-347.40803664782135	7753.771725037965	847.5339117889683	-317.8175770409925	7756.633739395715	823.8602291734625	-324.9611911385248	7752.028736808448	810.4982397148812	-331.4538702324099	7743.537808171462	805.5405642591752	-335.78240641902545	7734.350272847242	805.0177329119841	-338.5857528985208	7751.936359676391	843.8364344913989	-314.07906392566474	7753.690601646055	819.7311859377836	-318.3540146783229	7749.670122225601	807.9878998074028	-322.6680578946551	7743.3157369865185	803.8669752168623	-325.3971799424318	7735.084378204657	803.1133285241119	-327.6340948179989	7662.363391483585	1271.5131036880493	-156.2201672913003	7627.071649717648	1242.009726471443	-64.4653367480327	7707.614638706246	1050.125688125318	-156.72757132440165	7776.930607614842	890.8166768089317	-236.2539443354726	7764.877763517957	894.964070786359	-251.87535985607656	7760.765323143556	882.0548122033651	-273.6811890697901	7758.410520163158	870.3272296821544	-288.4126788590647	7756.882947391607	858.2085313232959	-300.3052222452401	7764.745574498694	886.3721244441442	-251.16914136751421	7751.698979802525	865.7828936962195	-274.4960127306036	7747.167376693292	846.962582519673	-293.46231387988036	7747.443895088634	836.6238554643938	-305.31367274763113	7749.759644112163	828.9851055348005	-315.16352196437117	7766.800499278786	879.4294721623538	-249.2520836632959	7755.185454040062	855.5933529767666	-270.9666966317642	7750.559713755243	834.2017556711312	-291.3375012473442	7751.0464794801155	821.3182283293354	-305.4796735049407	7753.654785772959	812.760623618788	-316.1813278222994	7768.539786294904	875.0735143749013	-247.27634028165144	7759.507258781202	849.9994141827968	-264.9455804957352	7755.820448578591	830.5179331732699	-282.3345274774634	7756.473195542464	817.6465300959022	-295.78123727069726	7759.012491159414	809.3897226177932	-305.75129943798925	7771.280374160495	870.463446539024	-244.5288187678976	7764.528654398803	844.6961545670819	-258.96113093150626	7762.154363409777	827.9002663071185	-272.23718975792303	7762.910063128413	817.933342948007	-281.7316398388832	7765.320369129536	810.2862397484615	-290.382991965265
179	0.742	7921.0129	906.651	56.2195	7970.556724803505	879.7158751853962	-6.403593031934452	7893.796840230528	475.0858154600461	-78.56812381532195	7927.815494457764	102.82159666890261	-172.23728026177994	7853.656600012821	25.10643729075222	-14.167364722181274	7879.181175570036	904.8459824537603	130.5337916411534	7820.860090130645	502.530236672726	230.88825911639623	7760.607761785406	71.64526062362168	294.34189615094226	7633.490792059758	-9.356373437294984	177.27502774126083	7884.813393321194	1035.3333062806869	5.667044816920323	7836.568969428817	1105.1685495352672	-41.01930221323451	7781.100594152094	1172.4554784645877	-91.36089896514981	7720.578215045882	1227.5583967877049	-142.33127381980876	7655.322071118339	1286.3622667279342	-196.11487978733663	7594.832550754972	1339.8414039441996	-244.08024091316872	7473.396150941186	1432.0590425180037	-289.57141797031676	7691.277837503186	1262.6198657814957	-199.3327633947297	7727.395916753173	1243.025826683098	-292.65989454103436	7732.140445504992	1016.474112688187	-254.00721463161148	7747.178240967117	866.3011292822315	-310.64609052521007	7753.949243750784	868.4230954836817	-325.06057817586	7746.921452483958	863.8067128289924	-335.8682744429459	7741.741412881293	858.0317344919453	-342.25228260773434	7737.178470185984	851.0272616685323	-346.5969966303017	7754.981236386185	859.2503709020305	-322.51037439071126	7759.628159692435	839.8019988593131	-335.44023243876376	7755.193703040473	827.2829352128633	-343.2483198604786	7748.099973553339	823.651601707809	-347.37684681495443	7739.303171785204	823.4464396561584	-350.30447976490063	7753.677450669232	853.0123976479881	-318.89644258921567	7757.50689066648	830.6686278659721	-329.55339914981874	7752.471332617695	816.2491035552649	-337.55329998143753	7743.81861433678	811.5039506467032	-342.2845469160701	7734.147427951198	811.1024758575275	-345.3665334000673	7752.714663217914	849.0706473280553	-316.0204364948766	7755.535881810081	825.5340008403155	-323.09563878143416	7750.938956577985	812.225940544199	-329.5197324258934	7742.48229861592	807.255918778541	-333.7920299007475	7733.33661271384	806.6922275157272	-336.5517997489941	7750.864431811218	845.334526504851	-312.2744821001296	7752.570978245177	821.333541752808	-316.4827380330195	7748.552687272835	809.6254043728651	-320.74005032316245	7742.221229003452	805.4915871878455	-323.4272759434432	7734.025750597579	804.6995081561008	-325.6250850444165	7662.512141859304	1271.7827700174619	-155.94562818311783	7627.687860097116	1242.7577977658573	-64.23336726173808	7707.869462929335	1050.7240307084087	-155.87642949390005	7776.060533901339	891.5845130568131	-234.6331508078579	7764.047298915896	895.8566416298015	-250.15698162339305	7759.962505225855	883.0219042175721	-271.7855514369821	7757.633737891451	871.3391950582494	-286.3907120431625	7756.133672151877	859.2518975284826	-298.1754715688263	7763.947443602127	887.2558671858123	-249.43681345667304	7751.0169579382655	866.7964861950522	-272.55935817004945	7746.542726012583	848.0403430573377	-291.3549005012011	7746.827517078785	837.7227761269177	-303.1026235848575	7749.131634641016	830.0889043398262	-312.8683966328781	7766.015660746075	880.2883483756507	-247.51766091015577	7754.521061311229	856.565437869013	-269.03185485806887	7749.959272419257	835.2401256728368	-289.216678311333	7750.456665617362	822.3803348654832	-303.23398610404314	7753.0525593952025	813.8271963651846	-313.84372768457126	7767.76168125862	875.9117547150913	-245.5458821705189	7758.843835723761	850.9219181450056	-263.03962305838263	7755.213950420553	831.4942128182784	-280.267139882027	7755.87757747205	818.6435819352637	-293.5937647261355	7758.405500234097	810.3899674885248	-303.4775748239078	7770.5042606483485	871.2722038640442	-242.8070334766418	7763.8600163882775	845.5648888969581	-257.08443309602006	7761.532654480665	828.8054545443799	-270.2330362414916	7762.296941182647	818.8504861511567	-279.64077219692905	7764.697547330598	811.2043719212666	-288.2162233563895
180	0.746	7921.0129	906.651	56.2195	7970.174735524402	879.5593469767941	-6.516177474006643	7893.482180210534	474.883324550016	-78.46875831767912	7928.101913772485	102.77002075063639	-172.39237141267762	7853.95669417828	25.027614267337803	-14.329672847321685	7879.548687250175	904.9996727157077	130.64884802048428	7821.298304455594	502.69979143513	231.09737853789287	7760.781007358259	71.82284531798796	294.3086248633938	7633.7462502555545	-9.266147359216616	177.21855015765874	7884.8878411518	1035.351344348684	5.661436570394781	7836.6399345746495	1105.2226789254273	-40.96775935192332	7781.159936478078	1172.5525187449748	-91.23538510035492	7720.6125946320135	1227.7036201745914	-142.11051177309093	7655.328482205383	1286.555525424663	-195.79247286820518	7594.817306029444	1340.0810140832136	-243.6631165983065	7473.343885800634	1432.285487160427	-289.06002991266666	7691.16781265839	1262.7069107772602	-199.03554461761325	7726.8716896285005	1242.870074583996	-292.0622441451553	7731.585081454172	1016.9718105219163	-252.80990387897776	7746.158912971567	867.7130076687655	-308.870217865689	7752.959871660254	870.0086257293771	-323.27957310922176	7745.984896653531	865.4478417806865	-334.0200674304942	7740.832753793584	859.7050875484376	-340.35227664102865	7736.2854669759945	852.7219223696569	-344.6495311884974	7753.957776827054	860.8414931335496	-320.71544993527135	7758.58703449876	841.5869136104542	-333.578271523773	7754.166924697914	829.1335803136245	-341.3158133259744	7747.105345613791	825.4954186991055	-345.3966404771769	7738.350824717751	825.2524348367651	-348.2822010222293	7752.63170786902	854.5758239901543	-317.08911779217794	7756.431856719704	832.4061125906029	-327.67398847819913	7751.409104286318	818.0539438281962	-335.5954613863188	7742.793806882457	813.2984561871854	-340.2684651267764	7733.168218713256	812.8545780697119	-343.30407885236565	7751.653296013778	850.6102592803757	-314.20625813290064	7754.433729113789	827.2109735796777	-321.21148289769627	7749.845102508031	813.9568726770132	-327.5658492918176	7741.423019704438	808.9743606797208	-331.7812394517246	7732.319487223726	808.3696046514361	-334.4970626671694	7749.788184560416	846.8355777282325	-310.4527979528905	7751.447029242314	822.9392118155878	-314.59288169081043	7747.4310975428425	811.2662715842383	-318.79252660788114	7741.122785257693	807.1194685294121	-321.4373574113332	7732.963454750901	806.288782429483	-323.59572681425215	7662.660635984474	1272.0527935838702	-155.66994761250234	7628.306298118059	1243.508528567041	-64.00047950958144	7708.126562881119	1051.3238225322832	-155.01993139390981	7775.188710509256	892.3535224543004	-233.00070965269387	7763.215371169794	896.7505302693155	-248.42627773329173	7759.158605551372	883.990586153123	-269.87671681854766	7756.856229897334	872.3529312483768	-284.35497913152926	7755.384045365948	860.2971779798149	-296.031512590946	7763.14822803575	888.1408965906585	-247.6922537258758	7750.335081917402	867.8115654444175	-270.60962794051125	7745.918927951192	849.1198018043557	-289.2337122450672	7746.212179855923	838.8235575950353	-300.8773381686216	7748.504652237571	831.1947195311483	-310.55863517168063	7765.229933578592	881.1484842879461	-245.77113287718407	7753.857086231322	857.5389630138699	-267.0841532171139	7749.3600416536	836.2801625540994	-287.0822518265485	7749.8682997490505	823.4443024721938	-300.97414777973034	7752.451771059407	814.8957994552813	-311.4915435873914	7766.9827970400665	876.7512298483495	-243.80343092924488	7758.180906076288	851.8457948985083	-261.12109713985404	7754.608656868664	832.4720582995202	-278.1865565060483	7755.28340368677	819.6423845424166	-291.3925795117108	7757.79994928943	811.3921211580866	-301.18973563559643	7769.72743990692	872.0821673866163	-241.07339918669112	7763.191891019078	846.4349359151605	-255.19545121555834	7760.912053456896	829.712102461571	-268.2161314624234	7761.685114428194	819.7692202517252	-277.5367932504154	7764.076024082618	812.1242328678231	-286.0359971927949
181	0.75	7921.0129	906.651	56.2195	7969.791587972371	879.4023863887015	-6.629040183723294	7893.166746426191	474.6803150562303	-78.36945017144231	7928.388539045547	102.71828019368557	-172.54807032043482	7854.257081564652	24.9485948039271	-14.492563899396318	7879.917352367577	905.1538097846642	130.76421292753548	7821.737672444604	502.86989662323344	231.30717170747164	7760.954460567957	72.00102046401808	294.27531045909154	7634.002144045805	-9.175550833015553	177.1619568472528	7884.962341190129	1035.3693326865728	5.655708353893011	7836.710733578388	1105.2767084778502	-40.916134679050195	7781.218860148908	1172.6494269024254	-91.10948057150539	7720.6462841894445	1227.8487421324364	-141.88888961781007	7655.333919204687	1286.74871463466	-195.46870518244276	7594.800858871596	1340.3206106104428	-243.2441652017613	7473.290427574261	1432.5121338570555	-288.5462798767348	7691.05632219337	1262.793463119742	-198.73708709976685	7726.343297111799	1242.7117244682877	-291.46157326384906	7731.026451447369	1017.4699588091253	-251.60491157092076	7745.135432031313	869.1274176658692	-307.0784640278096	7751.966397441504	871.5965538462845	-321.4822584473221	7745.044610224818	867.0911442195563	-332.1546214074405	7739.920609224621	861.3805115912088	-338.4342934307284	7735.389170979752	854.4186145969032	-342.6833952324797	7752.930134151095	862.4352198406418	-318.903861259623	7757.541789137662	843.3746302957973	-331.69806518823356	7753.136266776157	830.9870250311058	-339.36390305999754	7746.107101889676	827.3418980541433	-343.39647529026723	7737.395157254017	827.0608871673231	-346.23961525987943	7751.581752079908	856.1419875127659	-315.2649335828227	7755.352654969018	834.1465989107832	-325.7760705760193	7750.342966780669	819.8617998630014	-333.61783091430385	7741.76540664115	815.0958199099526	-338.2319117994312	7732.185738987061	814.6093178174401	-341.2207669768124	7750.587691035106	852.1526989397531	-312.3751224841213	7753.3273515521805	828.891094872792	-319.3088070516882	7748.747244960948	815.6909823383727	-325.59230793721304	7740.360040354271	810.6958369411908	-329.750125341286	7731.298963321899	810.0498128680166	-332.421634515079	7748.707685487522	848.3395410202002	-308.6140920508917	7750.318824656429	824.5481463698214	-312.6845289853052	7746.305423174157	812.9104510169133	-316.825572922311	7740.02047484623	808.7505695298167	-319.42751282767796	7731.897558021715	807.8811031176449	-321.5461109066494	7662.808867642593	1272.3231621339316	-155.39313851929796	7628.926935036347	1244.2618832057342	-63.76668782079929	7708.385936846464	1051.9250391423886	-154.15811963510694	7774.315190825779	893.1236831828969	-231.35669320339125	7762.38203276499	897.6457116524645	-246.68332698868204	7758.353677294184	884.9608312232751	-267.9547726647777	7756.078049531098	873.3684105287797	-282.3055735835504	7754.634120271446	861.3443444040151	-293.8734437694364	7762.347978825957	889.027188164565	-245.9355414155031	7749.653399282587	868.8281043658683	-268.6469122654754	7745.296029168572	850.2009305011459	-287.0988475641159	7745.597930893848	839.9261711936726	-298.6379195475653	7747.878745969333	832.3025223048422	-308.2343440827369	7764.443368171984	882.00985626083	-244.01257841513953	7753.193575456438	858.5139027149289	-265.12368106133533	7748.762067080624	837.321839451721	-284.9343200387638	7749.281428446419	824.5101038435677	-298.7002622812689	7751.852469064287	815.9664054706689	-309.12488303844583	7766.203183659836	877.59191680176	-242.04906484919934	7757.518516128806	852.7710201890432	-259.19008994626705	7754.004613246479	833.4514444738146	-276.09287220239315	7754.690720390703	820.6429124151672	-289.1777817332322	7757.195886137282	812.3961580507241	-298.8878854863706	7768.949961769827	872.8933150151997	-239.32799325682026	7762.524324525276	847.3062728806162	-253.2942702411383	7760.29260571292	830.6201868112169	-266.1865662927474	7761.074628840299	820.6895218397365	-275.419797605069	7763.455846761223	813.0457991701777	-283.8424111309912
